<svg width="77" height="84" viewBox="0 0 77 84" fill="none" xmlns="http://www.w3.org/2000/svg">
<g id="Group">
<path id="Vector" d="M37.3723 0.280377C35.9289 1.00212 33.5996 5.43099 32.4842 9.581C32.1397 10.8605 31.418 14.502 31.418 14.9613C31.418 15.0433 34.5838 15.1089 38.4878 15.1089H45.5411L45.4427 14.3215C44.7702 9.5482 43.015 4.59442 40.9646 1.72386C39.8 0.0835381 38.6846 -0.359348 37.3723 0.280377Z" fill="#8A5A23"/>
<path id="Vector_2" d="M30.9292 20.1768C29.7317 20.5541 28.6491 21.5055 28.2062 22.5881C27.8782 23.3755 27.911 24.2448 28.6327 37.2362C28.9936 43.6826 29.2724 48.9645 29.2396 48.9973C29.2232 49.0137 27.1564 46.0611 24.6467 42.4196C19.8898 35.5302 19.6109 35.2022 18.2003 34.8085C17.3309 34.5625 16.6584 34.5789 15.8546 34.8741C15.4773 35.0053 13.0168 36.6293 10.3759 38.4664C5.22531 42.0751 4.86444 42.4196 4.53637 43.9943C4.32313 44.9949 4.53637 46.0939 5.09408 46.9469C5.30733 47.275 8.07947 50.9329 11.2617 55.0665C14.4439 59.2165 17.5769 63.3993 18.2331 64.3999C19.6601 66.5651 21.1364 69.4521 22.137 72.0602C23.072 74.4715 23.4657 75.2424 24.5319 76.7515C27.1564 80.4751 31.2408 83.0176 35.7681 83.7557C42.1818 84.8055 48.661 82.0662 52.4502 76.7023C53.4836 75.2424 53.8773 74.4551 54.8122 72.0602C55.8128 69.4521 57.2891 66.5651 58.7162 64.3999C59.3723 63.3993 62.5054 59.2001 65.6876 55.0665C68.8698 50.9165 71.642 47.275 71.8552 46.9469C72.4293 46.0939 72.6261 44.9949 72.4129 43.9943C72.0848 42.4196 71.724 42.0915 66.5734 38.4664C63.8504 36.5637 61.4391 34.9889 61.0127 34.8413C59.6676 34.382 57.9781 34.8085 56.9447 35.8583C56.6658 36.1536 54.4842 39.221 52.0893 42.6985C49.6944 46.1923 47.7261 49.0137 47.7096 48.9973C47.6768 48.9645 47.9557 43.6826 48.3166 37.2362C49.0383 24.2448 49.0711 23.3755 48.7431 22.5881C48.4314 21.8336 47.562 20.8822 46.7747 20.4721C46.1185 20.1112 45.9709 20.1112 38.7207 20.0784C34.6691 20.062 31.1588 20.1112 30.9292 20.1768Z" fill="#8A5A23"/>
<path id="Vector_3" d="M1.94333 24.623C1.18878 24.787 0.631074 25.1971 0.303009 25.8204C-0.172684 26.6898 -0.0742649 30.0689 0.499848 32.5786C0.860719 34.1861 2.04175 37.7784 2.2878 38.0244C2.35341 38.09 12.1297 31.3155 12.6218 30.8562C12.9007 30.5774 12.8679 30.5282 11.6376 29.4619C8.17655 26.5094 3.61646 24.2293 1.94333 24.623Z" fill="#8A5A23"/>
<path id="Vector_4" d="M73.5756 24.7045C71.0824 25.3934 68.4086 26.9353 65.4068 29.4286C64.0782 30.5276 64.0454 30.5768 64.3406 30.8557C64.7507 31.2494 74.5926 38.1059 74.6419 38.0403C74.8551 37.8271 75.8229 35.0385 76.2166 33.513C77.1023 30.0847 77.25 26.8861 76.5938 25.7543C76.0033 24.7537 74.8387 24.36 73.5756 24.7045Z" fill="#8A5A23"/>
</g>
</svg>
